<?xml version="1.0" standalone="no"?>
<!DOCTYPE svg PUBLIC "-//W3C//DTD SVG 20010904//EN"
 "http://www.w3.org/TR/2001/REC-SVG-20010904/DTD/svg10.dtd">
<svg version="1.0" xmlns="http://www.w3.org/2000/svg"
 width="273.000000pt" height="273.000000pt" viewBox="0 0 273.000000 273.000000"
 preserveAspectRatio="xMidYMid meet">
<metadata>
Created by potrace 1.11, written by Peter Selinger 2001-2013
</metadata>
<g transform="translate(0.000000,273.000000) scale(0.100000,-0.100000)"
fill="#000000" stroke="none">
<path d="M1245 2215 c-86 -16 -180 -47 -256 -86 l-59 -29 0 -536 c0 -506 1
-537 19 -572 39 -75 87 -102 184 -102 70 0 114 21 144 67 16 24 19 61 23 368
l5 340 29 62 c30 65 105 147 164 177 17 9 59 23 94 31 168 40 351 -6 448 -111
95 -104 110 -173 110 -537 l0 -278 63 3 62 3 18 70 c24 91 33 278 18 375 -16
100 -59 223 -112 317 -59 105 -214 260 -324 325 -185 109 -422 152 -630 113z"/>
<path d="M1612 1673 c-67 -33 -66 -31 -72 -403 -6 -319 -7 -338 -29 -392 -73
-184 -290 -277 -520 -223 -119 28 -203 90 -252 187 -44 86 -49 127 -49 436 l0
292 -80 0 -79 0 -12 -42 c-30 -111 -27 -320 6 -450 37 -143 130 -302 241 -412
282 -279 721 -344 1069 -158 l70 37 0 512 0 511 -30 43 c-16 23 -46 50 -65 60
-45 24 -151 25 -198 2z"/>
</g>
</svg>
